<?xml version="1.0" encoding="utf-8"?><svg xmlns="http://www.w3.org/2000/svg" xmlns:xlink="http://www.w3.org/1999/xlink"><symbol viewBox="0 0 426.667 426.667" id="done" xmlns="http://www.w3.org/2000/svg"><path d="M293.333 135.04L190.08 240.213l-52.907-53.12-28.373 28.374 83.413 83.2 133.974-129.92z"/><path d="M213.333 0C95.513 0 0 95.513 0 213.333s95.513 213.333 213.333 213.333 213.333-95.513 213.333-213.333S331.154 0 213.333 0zm0 388.053c-96.495 0-174.72-78.225-174.72-174.72s78.225-174.72 174.72-174.72c96.446.117 174.602 78.273 174.72 174.72 0 96.496-78.224 174.72-174.72 174.72z"/></symbol><symbol viewBox="0 0 96.124 96.123" id="facebook" xmlns="http://www.w3.org/2000/svg"><path d="M72.089.02L59.624 0C45.62 0 36.57 9.285 36.57 23.656v10.907H24.037a1.96 1.96 0 0 0-1.96 1.961v15.803a1.96 1.96 0 0 0 1.96 1.96H36.57v39.876a1.96 1.96 0 0 0 1.96 1.96h16.352a1.96 1.96 0 0 0 1.96-1.96V54.287h14.654a1.96 1.96 0 0 0 1.96-1.96l.006-15.803a1.963 1.963 0 0 0-1.961-1.961H56.842v-9.246c0-4.444 1.059-6.7 6.848-6.7l8.397-.003a1.96 1.96 0 0 0 1.959-1.96V1.98A1.96 1.96 0 0 0 72.089.02z"/></symbol><symbol viewBox="0 0 169.063 169.063" id="instagram" xmlns="http://www.w3.org/2000/svg"><path d="M122.406 0H46.654C20.929 0 0 20.93 0 46.655v75.752c0 25.726 20.929 46.655 46.654 46.655h75.752c25.727 0 46.656-20.93 46.656-46.655V46.655C169.063 20.93 148.133 0 122.406 0zm31.657 122.407c0 17.455-14.201 31.655-31.656 31.655H46.654C29.2 154.063 15 139.862 15 122.407V46.655C15 29.201 29.2 15 46.654 15h75.752c17.455 0 31.656 14.201 31.656 31.655v75.752z"/><path d="M84.531 40.97c-24.021 0-43.563 19.542-43.563 43.563 0 24.02 19.542 43.561 43.563 43.561s43.563-19.541 43.563-43.561c0-24.021-19.542-43.563-43.563-43.563zm0 72.123c-15.749 0-28.563-12.812-28.563-28.561 0-15.75 12.813-28.563 28.563-28.563s28.563 12.813 28.563 28.563c0 15.749-12.814 28.561-28.563 28.561zm45.39-84.842c-2.89 0-5.729 1.17-7.77 3.22a11.053 11.053 0 0 0-3.23 7.78c0 2.891 1.18 5.73 3.23 7.78 2.04 2.04 4.88 3.22 7.77 3.22 2.9 0 5.73-1.18 7.78-3.22 2.05-2.05 3.22-4.89 3.22-7.78 0-2.9-1.17-5.74-3.22-7.78-2.04-2.05-4.88-3.22-7.78-3.22z"/></symbol><symbol viewBox="0 0 341.333 341.333" id="menu" xmlns="http://www.w3.org/2000/svg"><path d="M0 277.333h341.333V320H0zm0-128h341.333V192H0zm0-128h341.333V64H0z"/></symbol><symbol viewBox="0 0 512 512" id="qcheck" xmlns="http://www.w3.org/2000/svg"><path d="M468.907 214.604c-11.423 0-20.682 9.26-20.682 20.682v20.831c-.031 54.338-21.221 105.412-59.666 143.812-38.417 38.372-89.467 59.5-143.761 59.5h-.12C132.506 459.365 41.3 368.056 41.364 255.883c.031-54.337 21.221-105.411 59.667-143.813 38.417-38.372 89.468-59.5 143.761-59.5h.12c28.672.016 56.49 5.942 82.68 17.611 10.436 4.65 22.659-.041 27.309-10.474 4.648-10.433-.04-22.659-10.474-27.309-31.516-14.043-64.989-21.173-99.492-21.192h-.144c-65.329 0-126.767 25.428-172.993 71.6C25.536 129.014.038 190.473 0 255.861c-.037 65.386 25.389 126.874 71.599 173.136 46.21 46.262 107.668 71.76 173.055 71.798h.144c65.329 0 126.767-25.427 172.993-71.6 46.262-46.209 71.76-107.668 71.798-173.066v-20.842c0-11.423-9.259-20.683-20.682-20.683z"/><path d="M505.942 39.803c-8.077-8.076-21.172-8.076-29.249 0L244.794 271.701l-52.609-52.609c-8.076-8.077-21.172-8.077-29.248 0-8.077 8.077-8.077 21.172 0 29.249l67.234 67.234a20.616 20.616 0 0 0 14.625 6.058 20.618 20.618 0 0 0 14.625-6.058L505.942 69.052c8.077-8.077 8.077-21.172 0-29.249z"/></symbol><symbol viewBox="0 0 434.168 434.168" id="qcheck-form" xmlns="http://www.w3.org/2000/svg"><path d="M332.318 230.196V34.967H40.93v364.235h134.038c9.616 0 17.483 7.867 17.483 17.483s-7.867 17.483-17.483 17.483H23.446c-9.616 0-17.483-7.867-17.483-17.483V17.483C5.963 7.867 13.831 0 23.446 0H349.8c9.616 0 17.483 7.867 17.483 17.483v212.713c0 9.616-7.867 17.483-17.483 17.483s-17.482-7.867-17.482-17.483zm90.039 42.543c-7.285-6.411-18.357-5.828-24.768 1.457l-95.867 106.648-48.079-46.331c-6.993-6.702-18.066-6.411-24.768.583s-6.411 18.066.583 24.768l61.191 58.86c3.205 3.205 7.576 4.954 12.238 4.954h.583c4.662-.291 9.324-2.331 12.238-5.828l107.814-120.052c6.702-7.576 6.119-18.648-1.165-25.059zM268.212 101.986H110.863c-9.616 0-17.483 7.867-17.483 17.483s7.867 17.483 17.483 17.483h157.349c9.616 0 17.483-7.867 17.483-17.483s-7.867-17.483-17.483-17.483zm17.484 113.641c0-9.616-7.867-17.483-17.483-17.483h-157.35c-9.616 0-17.483 7.867-17.483 17.483s7.867 17.483 17.483 17.483h157.349c9.616 0 17.484-7.867 17.484-17.483zm-174.833 75.761c-9.616 0-17.483 7.867-17.483 17.483s7.867 17.483 17.483 17.483h46.622c9.616 0 17.483-7.867 17.483-17.483s-7.867-17.483-17.483-17.483h-46.622z"/></symbol><symbol viewBox="0 0 31.494 31.494" id="qleft-arrow" xmlns="http://www.w3.org/2000/svg"><path d="M10.273 5.009a1.112 1.112 0 0 1 1.587 0 1.12 1.12 0 0 1 0 1.571l-8.047 8.047h26.554c.619 0 1.127.492 1.127 1.111s-.508 1.127-1.127 1.127H3.813l8.047 8.032c.429.444.429 1.159 0 1.587a1.112 1.112 0 0 1-1.587 0L.321 16.532a1.12 1.12 0 0 1 0-1.571l9.952-9.952z"/></symbol><symbol viewBox="0 0 300 300" id="telegram" xmlns="http://www.w3.org/2000/svg"><path d="M5.299 144.645l69.126 25.8 26.756 86.047c1.712 5.511 8.451 7.548 12.924 3.891l38.532-31.412a11.496 11.496 0 0 1 14.013-.391l69.498 50.457c4.785 3.478 11.564.856 12.764-4.926L299.823 29.22c1.31-6.316-4.896-11.585-10.91-9.259L5.218 129.402c-7.001 2.7-6.94 12.612.081 15.243zm91.57 12.066l135.098-83.207c2.428-1.491 4.926 1.792 2.841 3.726L123.313 180.87a23.112 23.112 0 0 0-7.163 13.829l-3.798 28.146c-.503 3.758-5.782 4.131-6.819.494l-14.607-51.325c-1.673-5.854.765-12.107 5.943-15.303z"/></symbol><symbol id="viber" viewBox="0 0 632 666.4" xmlns="http://www.w3.org/2000/svg"><style>.ist0{fill:#fff}.st1{fill:#665ca7}.ist2,.st3{fill:none;stroke:#fff;stroke-width:16.8562;stroke-linecap:round;stroke-linejoin:round}.st3{stroke:#665ca7}</style><path class="ist0" d="M560.7 65C544.1 49.7 477.2 1.1 328.1.5c0 0-175.8-10.6-261.5 68C18.9 116.2 2.2 186 .4 272.5c-1.8 86.6-4.1 248.7 152.3 292.7h.1l-.1 67.1s-1 27.2 16.9 32.7c21.6 6.7 34.3-13.9 55-36.2 11.3-12.2 27-30.2 38.8-43.9 106.9 9 189.2-11.6 198.5-14.6 21.6-7 143.8-22.7 163.6-184.8 20.6-167.1-9.9-272.8-64.8-320.5zm18.1 308.5C562 509 462.9 517.5 444.6 523.4c-7.8 2.5-80 20.5-170.8 14.5 0 0-67.7 81.6-88.8 102.9-3.3 3.3-7.2 4.7-9.8 4-3.6-.9-4.6-5.2-4.6-11.5.1-9 .6-111.5.6-111.5-.1 0-.1 0 0 0C38.9 485.1 46.7 347 48.1 274.7c1.5-72.3 15.1-131.5 55.4-171.3C176 37.8 325.3 47.6 325.3 47.6c126.1.5 186.6 38.4 200.6 51.2 46.5 39.8 70.2 135.1 52.9 274.7z"/><path class="ist2" d="M389.5 268.8c-1.6-33.1-18.4-50.4-50.4-52.1m93.6 66.6c.7-30.8-8.4-56.5-27.4-77.2-19-20.7-45.3-32.2-79.1-34.6"/><path class="ist2" d="M477 300.6c-.4-53.5-16.4-95.5-47.9-126.3-31.5-30.7-70.8-46.3-117.7-46.6"/><path class="ist0" d="M340.8 381.7s11.9 1 18.2-6.9l12.4-15.6c6-7.8 20.5-12.7 34.7-4.8 7.9 4.5 22.1 13.2 30.9 19.7 9.4 6.9 28.7 23 28.7 23 9.2 7.7 11.3 19.1 5.1 31.1 0 .1-.1.2-.1.2-6.4 11.3-15 22-25.9 31.9l-.2.2c-8.9 7.4-17.7 11.7-26.3 12.7-1 .2-2.3.3-3.8.2-3.8 0-7.5-.5-11.2-1.7l-.3-.4c-13.3-3.7-35.4-13.1-72.3-33.4-24-13.2-43.9-26.7-60.7-40.1-8.9-7-18-15-27.3-24.2l-.9-.9-.9-.9-.9-.9-.9-.9c-9.2-9.3-17.2-18.4-24.2-27.3-13.4-16.8-26.9-36.8-40.1-60.7-20.3-36.9-29.7-59-33.4-72.3l-.4-.3c-1.2-3.7-1.8-7.4-1.7-11.2-.1-1.5 0-2.8.2-3.8 1-8.6 5.3-17.4 12.7-26.3l.2-.2c9.9-10.9 20.5-19.5 31.9-25.9.1 0 .2-.1.2-.1 12-6.2 23.4-4.1 31.1 5.1.1.1 16.1 19.3 23 28.7 6.5 8.9 15.3 23 19.7 30.9 7.9 14.2 3 28.7-4.8 34.7l-15.6 12.4c-7.9 6.4-6.9 18.2-6.9 18.2s23.1 87.7 109.8 109.8z"/></symbol><symbol viewBox="0 0 304.36 304.36" id="vk" xmlns="http://www.w3.org/2000/svg"><path d="M261.945 175.576c10.096 9.857 20.752 19.131 29.807 29.982 4 4.822 7.787 9.798 10.684 15.394 4.105 7.955.387 16.709-6.746 17.184l-44.34-.02c-11.436.949-20.559-3.655-28.23-11.474-6.139-6.253-11.824-12.908-17.727-19.372-2.42-2.642-4.953-5.128-7.979-7.093-6.053-3.929-11.307-2.726-14.766 3.587-3.523 6.421-4.322 13.531-4.668 20.687-.475 10.441-3.631 13.186-14.119 13.664-22.414 1.057-43.686-2.334-63.447-13.641-17.422-9.968-30.932-24.04-42.691-39.971-22.895-31.021-40.428-65.108-56.186-100.15C-2.01 76.458.584 72.22 9.295 72.07c14.465-.281 28.928-.261 43.41-.02 5.879.086 9.771 3.458 12.041 9.012 7.826 19.243 17.402 37.551 29.422 54.521 3.201 4.518 6.465 9.036 11.113 12.216 5.142 3.521 9.057 2.354 11.476-3.374 1.535-3.632 2.207-7.544 2.553-11.434 1.146-13.383 1.297-26.743-.713-40.079-1.234-8.323-5.922-13.711-14.227-15.286-4.238-.803-3.607-2.38-1.555-4.799 3.564-4.172 6.916-6.769 13.598-6.769h50.111c7.889 1.557 9.641 5.101 10.721 13.039l.043 55.663c-.086 3.073 1.535 12.192 7.07 14.226 4.43 1.448 7.35-2.096 10.008-4.905 11.998-12.734 20.561-27.783 28.211-43.366 3.395-6.852 6.314-13.968 9.143-21.078 2.096-5.276 5.385-7.872 11.328-7.757l48.229.043c1.43 0 2.877.021 4.262.258 8.127 1.385 10.354 4.881 7.844 12.817-3.955 12.451-11.65 22.827-19.174 33.251-8.043 11.129-16.645 21.877-24.621 33.072-7.328 10.223-6.746 15.376 2.357 24.255zm0 0" fill-rule="evenodd" clip-rule="evenodd"/></symbol><symbol viewBox="0 0 30.667 30.667" id="whatsapp" xmlns="http://www.w3.org/2000/svg"><path d="M30.667 14.939c0 8.25-6.74 14.938-15.056 14.938a15.1 15.1 0 0 1-7.276-1.857L0 30.667l2.717-8.017a14.787 14.787 0 0 1-2.159-7.712C.559 6.688 7.297 0 15.613 0c8.315.002 15.054 6.689 15.054 14.939zM15.61 2.382c-6.979 0-12.656 5.634-12.656 12.56 0 2.748.896 5.292 2.411 7.362l-1.58 4.663 4.862-1.545c2 1.312 4.393 2.076 6.963 2.076 6.979 0 12.658-5.633 12.658-12.559C28.27 8.016 22.59 2.382 15.61 2.382zm7.604 15.998c-.094-.151-.34-.243-.708-.427-.367-.184-2.184-1.069-2.521-1.189-.34-.123-.586-.185-.832.182-.243.367-.951 1.191-1.168 1.437-.215.245-.43.276-.799.095-.369-.186-1.559-.57-2.969-1.817-1.097-.972-1.838-2.169-2.052-2.536-.217-.366-.022-.564.161-.746.165-.165.369-.428.554-.643.185-.213.246-.364.369-.609.121-.245.06-.458-.031-.643-.092-.184-.829-1.984-1.138-2.717-.307-.732-.614-.611-.83-.611-.215 0-.461-.03-.707-.03s-.646.089-.983.456-1.291 1.252-1.291 3.054c0 1.804 1.321 3.543 1.506 3.787.186.243 2.554 4.062 6.305 5.528 3.753 1.465 3.753.976 4.429.914.678-.062 2.184-.885 2.49-1.739.308-.858.308-1.593.215-1.746z"/></symbol><symbol viewBox="0 0 512 512" id="youtube" xmlns="http://www.w3.org/2000/svg"><path d="M490.24 113.92c-13.888-24.704-28.96-29.248-59.648-30.976C399.936 80.864 322.848 80 256.064 80c-66.912 0-144.032.864-174.656 2.912-30.624 1.76-45.728 6.272-59.744 31.008C7.36 138.592 0 181.088 0 255.904v.256c0 74.496 7.36 117.312 21.664 141.728 14.016 24.704 29.088 29.184 59.712 31.264C112.032 430.944 189.152 432 256.064 432c66.784 0 143.872-1.056 174.56-2.816 30.688-2.08 45.76-6.56 59.648-31.264C504.704 373.504 512 330.688 512 256.192v-.256c0-74.848-7.296-117.344-21.76-142.016zM192 352V160l160 96-160 96z" data-original="#000000" class="lactive-path" data-old_color="#000000"/></symbol></svg>