<?xml version="1.0" standalone="no"?>
<!DOCTYPE svg PUBLIC "-//W3C//DTD SVG 20010904//EN"
 "http://www.w3.org/TR/2001/REC-SVG-20010904/DTD/svg10.dtd">
<svg version="1.0" xmlns="http://www.w3.org/2000/svg"
 width="260.000000pt" height="260.000000pt" viewBox="0 0 260.000000 260.000000"
 preserveAspectRatio="xMidYMid meet">
<metadata>
Created by potrace 1.11, written by Peter Selinger 2001-2013
</metadata>
<g transform="translate(0.000000,260.000000) scale(0.100000,-0.100000)"
fill="#000000" stroke="none">
<path d="M0 1300 l0 -1300 1300 0 1300 0 0 1300 0 1300 -1300 0 -1300 0 0
-1300z m1523 734 c174 -39 311 -147 387 -305 58 -121 73 -205 66 -364 -16
-390 -203 -690 -508 -816 -126 -52 -188 -59 -508 -59 l-290 0 5 22 c7 34 265
1519 265 1529 0 5 115 9 256 9 198 0 271 -4 327 -16z"/>
<path d="M1216 1779 c-7 -20 -176 -991 -176 -1012 0 -15 12 -17 90 -17 112 0
179 14 252 52 183 97 290 357 276 670 -7 157 -59 250 -163 294 -55 23 -272 33
-279 13z"/>
</g>
</svg>
